<?xml version="1.0" encoding="UTF-8" standalone="no"?>
<svg
   xmlns:dc="http://purl.org/dc/elements/1.1/"
   xmlns:cc="http://creativecommons.org/ns#"
   xmlns:rdf="http://www.w3.org/1999/02/22-rdf-syntax-ns#"
   xmlns:svg="http://www.w3.org/2000/svg"
   xmlns="http://www.w3.org/2000/svg"
   xmlns:sodipodi="http://sodipodi.sourceforge.net/DTD/sodipodi-0.dtd"
   xmlns:inkscape="http://www.inkscape.org/namespaces/inkscape"
   width="100mm"
   height="100mm"
   viewBox="0 0 100 100"
   version="1.1"
   id="svg8"
   sodipodi:docname="logo.svg"
   inkscape:version="1.0.2 (e86c870879, 2021-01-15, custom)">
  <sodipodi:namedview
     pagecolor="#ffffff"
     bordercolor="#666666"
     borderopacity="1"
     objecttolerance="10"
     gridtolerance="10"
     guidetolerance="10"
     inkscape:pageopacity="0"
     inkscape:pageshadow="2"
     inkscape:window-width="1556"
     inkscape:window-height="844"
     id="namedview24"
     showgrid="false"
     inkscape:zoom="2.2489583"
     inkscape:cx="188.97638"
     inkscape:cy="188.97638"
     inkscape:window-x="1951"
     inkscape:window-y="75"
     inkscape:window-maximized="0"
     inkscape:current-layer="svg8" />
  <defs
     id="defs2">
    <rect
       x="30.994047"
       y="24.946428"
       width="32.505951"
       height="11.339286"
       id="rect34" />
    <rect
       x="10.583333"
       y="10.583333"
       width="68.777283"
       height="72.289772"
       id="rect28" />
    <rect
       x="24.946428"
       y="30.238094"
       width="0"
       height="25.702381"
       id="rect22" />
    <rect
       x="16.630953"
       y="15.119048"
       width="38.55357"
       height="46.869049"
       id="rect12" />
  </defs>
  <metadata
     id="metadata5">
    <rdf:RDF>
      <cc:Work
         rdf:about="">
        <dc:format>image/svg+xml</dc:format>
        <dc:type
           rdf:resource="http://purl.org/dc/dcmitype/StillImage" />
        <dc:title></dc:title>
      </cc:Work>
    </rdf:RDF>
  </metadata>
  <g
     id="layer1"
     style="display:inline"
     transform="translate(-40.357697,-37.150467)">
    <text
       xml:space="preserve"
       id="text10"
       style="font-style:normal;font-weight:normal;font-size:10.5833px;line-height:1.25;font-family:sans-serif;white-space:pre;shape-inside:url(#rect12);fill:#000000;fill-opacity:1;stroke:none;" />
    <text
       xml:space="preserve"
       id="text20"
       style="font-style:normal;font-weight:normal;font-size:10.5833px;line-height:1.25;font-family:sans-serif;white-space:pre;shape-inside:url(#rect22);fill:#000000;fill-opacity:1;stroke:none;" />
    <text
       xml:space="preserve"
       id="text32"
       style="font-style:normal;font-weight:normal;font-size:10.5833px;line-height:1.25;font-family:sans-serif;white-space:pre;shape-inside:url(#rect34);fill:#000000;fill-opacity:1;stroke:none;" />
    <rect
       style="fill:#008080;stroke-width:0.264583"
       id="rect42"
       width="100"
       height="100"
       x="40.357697"
       y="37.150467" />
  </g>
  <g
     id="layer2"
     style="display:inline"
     transform="translate(-40.357697,-37.150467)">
    <g
       aria-label="
M"
       transform="matrix(1.1949417,0,0,1.1949417,35.293812,29.113381)"
       id="text26"
       style="font-style:normal;font-variant:normal;font-weight:normal;font-stretch:normal;font-size:25.4px;line-height:1.25;font-family:'the King &amp; Queen font';-inkscape-font-specification:'the King &amp; Queen font, Normal';font-variant-ligatures:normal;font-variant-caps:normal;font-variant-numeric:normal;font-variant-east-asian:normal;white-space:pre;shape-inside:url(#rect28);display:inline;fill:#e3dbdb;fill-opacity:1;stroke:none">
      <path
         d="m 68.378905,23.90094 h 0.198438 q 0.09922,0 0.09922,0.148828 -0.545703,1.265039 -2.282032,3.621484 l -2.232421,3.96875 q -0.396875,0.310059 -0.396875,0.84336 -0.818555,0.905371 -1.63711,2.430859 l -1.53789,2.480469 q 0,0.136426 -0.347266,0.644922 -0.07441,0.235644 -0.446484,0.694531 0,0.334863 -1.537891,3.026172 -1.339453,2.604492 -1.339453,3.175 v 0.09922 q 0.496094,-0.37207 0.496094,-0.892968 0.496093,-0.372071 1.885156,-2.827735 0.58291,-1.029394 1.240234,-1.785937 0,-0.37207 0.744141,-1.389063 0,-0.334863 0.545703,-0.843359 0,-0.148828 0.446484,-0.545703 l 0.198438,0.04961 q 0.396875,-0.09922 1.289844,-1.339453 0.347265,0.111621 0.347265,0.198438 l -0.09922,0.297656 h 0.04961 l 0.694531,-0.148828 q 0.446484,0.173633 0.446484,0.496094 v 0.04961 l -0.04961,0.04961 v 0.04961 l 0.198438,0.148828 v 0.396875 q -0.111622,0.694531 -0.198438,0.694531 l -0.396875,0.04961 v 0.297657 l -0.09922,0.09922 h -0.148828 l -0.148828,-0.148828 v -0.79375 L 64.01328,36.948205 q -0.384472,0 -1.141015,1.141016 -0.694531,0.644922 -0.694531,0.992187 0,0.322461 -1.785938,2.530079 -0.446484,1.091406 -1.091406,1.785937 0,0.322461 -1.240234,2.232422 -0.21084,0.657324 -0.545704,0.843359 l -0.148828,0.446485 0.248047,0.198437 q -0.396875,1.227832 -1.637109,2.182813 v 0.248046 q -0.496094,0.79375 -0.496094,1.041797 l 0.09922,0.09922 q 0,0.285254 -0.545703,1.041797 0,0.260449 -0.396875,0.694531 -0.322461,0.892969 -1.438672,2.579688 l -1.637109,3.075781 v 0.04961 h 0.09922 q 0.285254,0 0.595313,-0.595312 0.198437,0 0.198437,-0.347266 0,-0.09922 0.248047,-0.09922 0.0124,-0.248047 2.430859,-2.530078 0.136426,-0.458886 0.545704,-0.595312 1.16582,-1.079004 1.5875,-1.736328 0.210839,0 0.694531,-0.79375 l 3.423047,-3.919141 q 1.835546,-2.058789 1.835546,-2.232422 0,-0.235644 0.496094,-0.694531 0.21084,-0.334863 0.942578,-0.843359 0,-0.173633 0.744141,-0.744141 3.33623,-3.175 4.365625,-3.96875 0,-0.297656 0.347265,-0.297656 0.359668,-0.21084 0.595313,-0.644922 0.334863,0 1.091406,-0.942578 0.644922,-0.63252 0.644922,-0.843359 h 0.248047 q 0.595312,-0.694532 0.892969,-0.694532 l 0.148828,-0.148828 h 0.09922 v 0.09922 q 0.396875,-0.173633 0.396875,-0.248047 l -0.04961,-0.198437 0.297656,-0.04961 -0.04961,-0.248047 0.248047,-0.04961 -0.04961,-0.248047 q 1.785937,-0.744141 1.785937,-1.339453 0.198438,0 0.644922,-0.744141 l 0.446484,-0.297656 0.198438,0.04961 q 0,-0.297656 0.198437,-0.297656 l 0.04961,-0.04961 q 0,-0.148828 0.09922,-0.148828 l 0.248047,0.04961 -0.04961,-0.248047 v -0.04961 l 0.04961,-0.04961 v -0.04961 l 0.396875,0.09922 q 0,-0.347266 1.041797,-0.496094 0.595313,-0.297656 0.595313,-0.396875 v -0.148828 h 0.04961 l 0.198437,0.04961 q 0.558106,-0.347265 0.942579,-0.347265 h 0.04961 q 0.09922,0 0.09922,0.248047 l 0.446484,-0.248047 0.198438,0.04961 0.09922,-0.09922 h 0.347266 q 0,-0.198437 0.09922,-0.198437 l 0.248047,0.04961 0.297656,-0.04961 0.148828,0.396875 q -0.297656,0.434082 -1.389063,0.595312 l -0.545703,0.347266 q -0.421679,0 -0.595312,0.396875 l -0.892969,0.694531 q -0.09922,0 -0.09922,-0.297656 -0.334863,0.396875 -0.79375,0.595312 0,0.248047 -0.396875,0.248047 -0.892968,1.339453 -1.53789,1.339453 -0.63252,0.768946 -2.38125,2.38125 -0.396875,0.731739 -2.678906,3.373438 l -3.373438,4.365625 q -0.95498,1.500683 -2.282031,3.12539 l -0.248047,0.396875 v 0.496094 q 0,0.248047 -1.835547,3.224609 -0.558105,0.520899 -2.530078,4.7625 l -0.297656,1.240235 q -0.719336,1.351855 -0.79375,2.033984 -0.359668,0 -0.595313,2.083594 l 0.148829,0.198437 -0.04961,0.446485 q 0,0.198437 0.297656,0.396875 l -0.04961,0.347265 v 0.09922 q 0,0.297656 0.297656,0.297656 h 0.04961 q 0.235644,0 0.545703,-0.347265 l 0.04961,0.04961 v 0.04961 l -0.09922,0.248047 h 0.04961 l 0.198437,-0.04961 v -0.248047 q 0.892969,-0.58291 1.847949,-0.781348 l 0.533301,-0.124023 0.08682,-0.880566 Q 64.06289,61.244396 64.06289,61.15758 v -0.04961 l -0.04961,-0.04961 v -0.04961 l 0.310059,0.223242 -0.16123,-0.322461 0.595312,0.620117 0.297656,-0.223242 0.570508,-0.136426 0.248047,-0.347265 q 0.359668,-0.21084 1.240234,-0.58291 -0.09922,-0.607715 0.471289,-1.041797 l 1.128614,-0.905371 q 0.235644,-0.396875 0.595312,-0.396875 h 0.148828 q 0.09922,0 0.148828,0.496093 l -0.446484,0.458887 -0.830957,1.041797 q -1.314648,1.389062 -0.830957,0.967383 l -0.09922,0.06201 -1.302246,1.959571 q -0.620117,-0.694531 -1.066601,0.607715 -1.748731,0.173632 -2.00918,0.644921 -0.496094,0 -0.992188,0.84336 -1.190625,0.409277 -1.190625,0.942578 l 0.892969,0.644922 0.694531,-0.09922 0.198438,0.347266 -0.446484,0.148828 v 0.09922 l 0.04961,0.248046 -0.04961,0.04961 -0.04961,-0.04961 h -0.148828 l 0.347266,0.297657 q 0.942578,-0.08682 0.942578,-0.396875 0.409277,0 0.644922,-0.79375 0.74414,-0.396875 0.74414,-1.240235 v -0.297656 l 0.148828,-0.148828 h 0.148829 q 0.136425,0 0.198437,0.496094 v 0.74414 l -0.09922,0.148828 0.09922,0.148829 v 0.198437 q 0,0.148828 -0.198437,0.148828 v 0.09922 l 0.148828,0.198437 v 0.09922 l -0.347266,0.248047 h -0.04961 l -0.198438,-0.09922 q -0.260449,0 -0.396875,0.84336 -0.806152,0.644922 -1.488281,0.644922 h -0.79375 q -0.446484,-0.359668 -0.446484,-0.496094 l -0.248047,0.04961 q -0.173633,-0.533301 -0.694531,-0.942578 0,-0.136426 -0.84336,-0.992187 0,-0.347266 -0.992187,-1.141016 -0.396875,-1.79834 -0.396875,-2.38125 v -1.190625 l 0.198437,-0.694531 -0.248047,-0.297656 0.248047,-0.694532 -0.04961,-0.198437 q 0.396875,-0.79375 0.644922,-2.579688 l 0.347265,-0.694531 -0.09922,-0.297656 q 1.004589,-1.810742 1.53789,-3.175 1.252637,-0.930176 1.637109,-2.033984 0.384473,-0.644922 0.644922,-1.438672 0.161231,0 0.644922,-1.041797 0.322461,-0.260449 1.190625,-1.984375 0.545703,-0.384473 0.545703,-0.644922 0,-0.644922 1.041797,-1.488281 l 0.198438,-0.595313 -0.04961,-0.04961 h -0.04961 q -1.116211,0.992187 -3.819922,4.117578 -1.736328,1.488281 -1.934766,2.232422 -0.731738,1.016992 -1.339453,1.488281 0,0.148828 -0.79375,1.091406 0,0.558106 -0.79375,0.992188 -2.468066,2.468066 -2.728515,3.224609 -2.120801,1.748731 -2.629297,2.877344 -1.525488,1.463476 -2.182812,2.232422 l -1.339454,0.992187 q -1.426269,1.637109 -1.637109,1.637109 -0.310059,0 -0.744141,0.496094 -0.644921,0.396875 -1.438671,0.644922 -0.979786,0.942578 -1.885157,0.942578 h -0.198437 v -0.04961 l 0.892969,-1.289844 q 0,-0.446484 0.545703,-0.446484 l 1.389062,-1.785938 q 0.347266,-0.570508 0.942578,-0.992187 l 1.091407,-1.488281 0.595312,-1.091407 q 0.04961,-0.396875 0.595313,-1.041797 0.210839,-0.818554 1.041796,-2.282031 0.744141,-2.033984 1.885157,-3.720703 l 0.198437,-0.198437 -0.09922,-0.297657 q 1.00459,-1.066601 1.389063,-2.678906 0,-0.310058 0.396875,-0.545703 0,-0.248047 0.595312,-1.389062 0.347266,-0.744141 0.84336,-2.232422 0.198437,-0.186035 1.389062,-2.530078 0,-0.644922 0.446485,-1.091407 l -0.04961,-0.347265 q 0.148828,-0.04961 0.148828,-0.297656 v -0.347266 q 0,-0.09922 0.148828,-0.09922 l 0.198438,-0.09922 v -0.09922 l -0.04961,-0.396875 0.74414,-1.438672 v -0.09922 l -0.04961,-0.04961 v -0.04961 q 0.198437,-0.07441 0.198437,-0.148828 l -0.04961,-0.04961 v -0.04961 l 0.04961,-0.248046 h -0.248047 q 0,0.111621 -0.942578,0.992187 0,0.173633 -2.33164,2.877344 0,0.248047 -1.240235,1.53789 -0.421679,0.582911 -0.545703,0.942579 0.198438,0 0.297656,0.198437 -0.905371,1.537891 -1.339453,1.537891 h -0.148828 q -0.04961,0.396875 -0.396875,0.396875 v 0.04961 l 0.148828,0.198437 v 0.248047 q 0,0.297657 -0.694531,0.84336 0,0.16123 -1.339453,1.339453 l -2.182812,2.282031 q -0.756543,0.905371 -2.926954,2.827734 -1.041796,1.116211 -1.041796,1.438672 0,0.248047 -0.892969,0.942578 -0.161231,0 -0.198438,0.347266 -0.16123,0 -1.190625,1.289844 L 40.25039,58.77633 h -0.04961 l 0.04961,-0.248047 q -0.111621,0 -0.644922,0.744141 -0.570507,0.58291 -1.041797,0.74414 0,0.198438 -0.446484,0.198438 l 0.04961,0.04961 v 0.09922 q -0.210839,0 -0.347265,0.198438 -0.446485,0 -0.446485,0.248046 0,0.198438 -0.79375,0.347266 -0.496093,0.644922 -1.091406,0.644922 -0.79375,0.471289 -0.79375,0.545703 0,0.09922 -0.496093,0.148828 -0.458887,0.458887 -1.339454,0.744141 -0.768945,0.595312 -0.892968,0.595312 -1.37666,0.756543 -2.530078,1.091406 l -0.09922,0.09922 h -0.496094 l -0.04961,-0.198437 q -0.694532,0.396875 -0.892969,0.396875 -0.520898,0.148828 -1.240234,0.148828 h -0.09922 q -0.297656,0.148828 -2.728516,0.545703 l -0.248047,-0.04961 -0.545703,0.148828 v -0.09922 h -0.04961 l -0.446484,0.148828 v -0.09922 q -0.458887,0.09922 -1.934766,0.148828 l -0.297656,-0.148828 -0.198438,0.04961 -0.297656,-0.09922 H 19.61289 v 0.09922 h -0.04961 l -0.396875,-0.09922 q 0,0.148828 -0.09922,0.148828 0,-0.08682 -0.942578,-0.347266 -0.347265,-0.248046 -0.347265,-0.496093 v -0.04961 q 0.235644,0 0.347265,-0.148828 h 0.496094 l 0.843359,-0.248047 q 6.945313,-0.855761 6.945313,-0.942578 0.173633,-0.198437 0.396875,-0.198437 l 0.297656,0.148828 v -0.04961 q 0,-0.248046 0.248047,-0.248046 l 3.175,-0.942579 q 0.173633,0 0.396875,-0.198437 h 0.248047 q 0,-0.198437 0.347265,-0.198437 l -0.148828,-0.396875 q -3.646289,0.446484 -4.067969,0.793749 -0.334863,0.198438 -0.793749,0.198438 h -0.446485 l -1.091406,-0.04961 -2.133203,0.148828 -1.686719,-0.148828 -0.148828,0.148828 h -1.091406 l -0.148828,-0.148828 -0.595313,0.09922 q -3.237012,-0.806152 -4.117578,-1.389062 -0.719336,0 -1.240234,-0.496094 -0.372071,0 -0.496094,-0.347265 l -0.04961,-0.04961 h -0.347266 l -0.04961,0.04961 h -0.04961 q -0.768945,-0.942579 -1.438672,-0.942579 l -0.04961,-0.04961 h -0.04961 l 0.04961,-0.347266 -0.198438,-0.198437 0.04961,-0.297656 -0.297656,-0.595313 0.04961,-0.04961 h 0.04961 q 0.396875,0.04961 0.396875,0.148828 v 0.446484 l 0.396875,0.09922 h 0.09922 v -0.09922 q 0,-0.198437 -0.297656,-0.446484 0,-0.235645 -0.248047,-0.545703 0,-0.347266 -0.496094,-1.091406 l -0.347265,-1.091407 v -0.09922 l 0.04961,-0.248047 q -0.198437,0 -0.198437,-0.148828 v -0.248047 q 0,-0.496094 -0.248047,-1.438672 0,-0.458887 0.347265,-0.644922 0.248047,-1.810742 0.496094,-2.480469 0.79375,-3.274218 0.992187,-3.274218 h 0.04961 l -0.04961,-0.04961 v -0.04961 q 0.26045,-0.483692 0.347266,-0.496094 0.08682,0 0.148828,0.446484 l 0.297656,0.09922 v -0.198437 q -0.148828,0 -0.148828,-0.09922 l 0.148828,-0.198438 q -0.04961,-0.396875 -0.148828,-0.396875 l -0.347265,0.148829 -0.04961,-0.04961 q 0,-0.310058 0.248047,-0.545703 l 0.297656,0.248047 q 0.248047,-0.297656 0.248047,-0.446484 v -0.496094 h -0.198437 q 0,0.248047 -0.09922,0.248047 l -0.09922,-0.09922 v -0.198437 q 0.148828,-0.21084 0.148828,-0.396875 -0.570507,-0.570508 -1.240234,-0.992188 h -0.446484 v 0.248047 l -0.09922,0.09922 h -0.297656 v -0.198438 l -0.04961,-0.248047 0.04961,-0.04961 h 0.09922 l 0.248047,0.04961 v -0.09922 q 0,-0.111622 -0.248047,-0.148829 L 10.1375,43.447033 9.8894531,43.397424 H 9.6414063 v 0.248047 l -0.396875,0.396875 0.1984375,0.04961 -0.1488282,1.438672 q 0.2604493,0.520899 0.8929684,1.091406 v 0.09922 q 0,0.111621 -0.2480465,0.148828 -0.3472656,-0.124023 -0.3472656,-0.496094 -0.5084961,0 -0.8433594,-1.141015 L 8.153125,44.736877 q 0.1736328,-1.289844 0.6449219,-1.289844 0.2852539,0 0.3472656,-0.644921 h 0.049609 q 0.099219,0 0.099219,0.148828 L 9.34375,42.90133 h 0.2976563 q 0,-0.496093 0.3968747,-0.496093 h 0.545703 q 0.272852,-0.446485 1.091407,-0.446485 h 0.09922 q 0.161231,0 0.744141,0.396875 0.310059,0 0.496094,0.248047 l -0.09922,0.297656 q 0,0.446485 0.396875,0.446485 0.297656,0.08682 0.297656,0.74414 0.06201,0 0.09922,0.992188 h 0.04961 l 0.297657,-0.09922 q 0.09922,0.111621 0.09922,0.347266 l 0.248047,0.04961 q 0,-0.21084 0.694531,-0.694531 0.03721,-0.297656 0.148829,-0.297656 h 0.446484 q 0.03721,-0.545704 0.347266,-0.545704 l 0.297656,-0.248046 h 0.297656 q 0,-0.446485 1.488281,-0.992188 1.401465,-0.781348 2.678906,-1.141016 0.892969,-0.74414 2.926954,-1.339453 0.669726,-0.136425 2.579687,-0.248047 l 2.976562,-0.396875 h 0.446485 l 0.148828,0.148829 -0.04961,0.04961 v 0.04961 h 0.892968 l 0.297657,0.248047 0.248046,-0.04961 q 0.396875,0 0.396875,0.248047 0,0.458886 -0.496093,0.74414 -1.00459,0 -1.785938,-0.347265 h -0.545703 l -1.041797,0.148828 -0.04961,-0.04961 v -0.04961 l -2.232422,0.992188 h -0.545703 q -0.09922,0 -0.09922,-0.148829 -0.260449,0.248047 -0.446484,0.248047 l -0.148828,-0.04961 -0.148828,0.148828 -0.248047,-0.09922 q -0.285254,0.297657 -1.736328,0.446485 -1.203028,0.74414 -1.537891,0.74414 h -0.09922 q 0,0.223242 -0.74414,0.446485 -0.26045,0.272851 -1.63711,1.041797 -1.401465,1.277441 -2.33164,1.835546 -0.533301,0.607715 -1.389063,2.232422 -0.570508,0.483692 -0.843359,1.835547 l 0.04961,0.04961 q -0.471289,0 -0.942578,2.530079 v 0.09922 q 0,0.42168 1.438672,3.919141 l 0.09922,0.694531 -0.09922,0.248047 0.446484,0.148828 v 0.198438 l -0.04961,0.04961 v 0.04961 q 0.347266,0.446485 1.389062,0.84336 0,0.334863 2.579688,1.289843 1.00459,0.124024 1.240234,0.347266 l 0.198438,-0.04961 0.297656,0.09922 h 0.79375 l 2.133203,0.04961 0.198438,-0.04961 0.496093,0.04961 h 0.496094 l 0.347266,-0.04961 0.396875,0.04961 2.232421,-0.04961 q 0,-0.09922 0.595313,-0.148828 0,-0.09922 1.537891,-0.248047 0.409277,-0.446484 1.041796,-0.545703 l 2.778125,-0.942578 q 0,-0.08682 1.785938,-0.892969 0.359668,-0.384472 3.869531,-2.579687 0.868164,-0.756543 2.926953,-2.232422 0,-0.124023 1.091406,-1.190625 0.434082,-0.632519 0.992188,-0.892969 0,-0.272851 0.595312,-0.694531 0.79375,-0.768945 0.892969,-1.091406 1.066602,-0.781348 3.274219,-3.175 0.322461,-0.136426 1.488281,-1.5875 l 3.869531,-4.564062 1.686719,-1.984375 q 2.120801,-2.22002 2.232422,-2.778125 0.384472,-0.310059 0.545703,-0.595313 v -0.347265 q 0.384473,0 0.694531,-0.496094 v -0.09922 l -0.04961,-0.198437 q 0.111621,-0.297657 0.198437,-0.297657 h 0.248047 q 0,-0.260449 0.446485,-0.79375 0,-0.111621 0.297656,-0.396875 0.235644,-0.58291 0.545703,-0.942578 v -0.04961 l -0.04961,-0.248047 0.496094,-0.396875 v 0.248047 q 0.285254,-0.08682 1.289844,-1.091406 v -0.496094 q 0,-0.260449 0.396875,-0.644922 h 0.297656 q 0.42168,-0.917773 1.190625,-1.835547 0.09922,0 0.09922,-0.248047 l 0.446484,-0.148828 v -0.04961 l -0.148828,-0.148828 v -0.04961 l 0.04961,-0.04961 v -0.04961 h -0.04961 q -1.971972,0.930175 -3.274219,1.885156 h -0.347265 q 0,0.248047 -0.545703,0.297656 -0.161231,0.297656 -0.644922,0.297656 -0.967383,1.041797 -2.033984,1.041797 -1.984375,0.917774 -3.571875,1.438672 0,0.16123 -2.38125,0.79375 -1.00459,0.396875 -3.22461,0.992187 -0.818554,0.372071 -4.018359,0.992188 0,-0.09922 -0.148828,-0.09922 -0.136426,0.148828 -2.133203,0.446485 l -0.297656,-0.04961 0.04961,0.04961 v 0.248046 l -1.736328,0.297657 -0.446485,-0.04961 q 0,0.136426 -1.637109,0.248047 0,0.136426 -2.430859,0.248047 l -0.148828,-0.04961 -0.396875,0.148828 -1.141016,-0.04961 -0.79375,0.04961 -0.248047,-0.148828 q -0.198437,0.07441 -0.198437,0.148828 l -2.480469,-0.148828 q -0.04961,-0.148828 -0.297656,-0.148828 h -0.496094 q -1.5875,-0.148829 -1.5875,-0.396875 v -0.09922 h -0.09922 l -0.04961,0.248047 q -0.223242,0 -0.396875,-0.198438 l -0.248047,0.04961 h -0.297656 q -0.297656,-0.297657 -0.694531,-0.297657 l -0.04961,-0.04961 -0.148828,0.09922 h -0.04961 q 0,-0.08682 -1.289844,-0.198438 l -0.396875,-0.347265 h -0.04961 q 0,0.148828 -0.09922,0.148828 -0.880567,-0.136426 -1.339453,-0.446485 l -0.297657,0.09922 -0.04961,-0.248047 0.396875,-0.09922 q 0,0.09922 0.148828,0.09922 l 0.545703,-0.04961 q 0.198438,0.198437 0.198438,0.347265 h 0.04961 q 0,-0.248046 0.198438,-0.248046 0.644922,0 0.892968,0.248046 l 0.248047,0.04961 0.09922,-0.09922 h 0.09922 q 0,0.248047 -0.09922,0.248047 l 0.04961,0.198437 h 0.04961 q 0.198437,-0.248046 0.396875,-0.248046 h 0.04961 l 0.04961,0.04961 h 0.04961 q 0,-0.148828 0.09922,-0.148828 h 0.04961 q 0.03721,0.297656 0.09922,0.297656 l 0.396875,-0.148828 h 0.347265 q 0.04961,-0.396875 0.198438,-0.396875 h 0.09922 l 0.09922,0.09922 -0.04961,0.148828 q 0.409277,0.08682 0.892969,0.396875 0.558105,0 0.942578,0.148828 0.198437,0 0.198437,-0.297656 h 0.04961 l 0.396875,0.04961 0.297656,-0.198437 h 0.446484 q 0.471289,0 0.942578,0.198437 l 0.496094,-0.09922 -0.04961,-0.04961 v -0.04961 l 0.09922,-0.09922 h 0.04961 q 0.148828,0 0.148828,0.198437 0.818555,-0.09922 0.942578,-0.248047 h 0.09922 q 0.545703,0.07441 0.545703,0.347266 l 0.198438,-0.148828 0.347265,0.04961 0.09922,-0.09922 0.04961,0.04961 q 1.364258,-0.198438 2.282031,-0.198438 h 0.942579 l 0.694531,0.04961 q 0.719336,-0.297656 4.365625,-0.79375 0.285254,-0.198438 2.728515,-0.545703 1.699121,-0.396875 3.571875,-0.694532 l 2.480469,-0.74414 q 2.716113,-0.992188 3.175,-1.240235 0.607715,0 2.282031,-0.843359 l 0.942578,-0.496094 1.389063,-0.545703 q 0.409277,-0.359668 1.141015,-0.79375 v -0.04961 h -0.04961 q -2.083594,0.347266 -2.083594,0.446484 l -0.09922,0.09922 h -0.04961 l -2.232422,0.347266 q -0.806152,0 -2.33164,0.595312 l -2.778125,0.09922 -0.644922,-0.148828 q 0,0.148828 -0.09922,0.148828 h -0.04961 q -0.520899,-0.198438 -0.84336,-0.198438 l -0.04961,0.04961 v 0.04961 q -2.182812,-0.235644 -2.182812,-0.396875 l -0.297657,0.148828 -0.595312,-0.148828 -0.04961,0.04961 h -0.04961 l -0.198437,-0.04961 -0.644922,0.04961 q -0.198438,-0.223243 -0.198438,-0.347266 h -0.04961 l -0.248047,0.198437 q -0.756543,0 -2.480469,-0.496093 -0.79375,-0.235645 -0.79375,-0.595313 l 0.04961,-0.04961 H 41.8875 l 0.892968,0.347265 q 1.016992,0.297657 5.308203,0.545704 l 0.04961,0.04961 1.041797,-0.198438 0.545703,0.04961 1.339453,0.04961 3.720703,-0.347265 h 0.496094 q 0.37207,-0.198438 3.621484,-0.744141 0,0.09922 0.148828,0.09922 l 2.033984,-0.545703 h 0.09922 l 0.148828,0.04961 0.396875,-0.396875 0.545703,0.09922 q 0,-0.26045 1.190625,-0.694532 0.446485,0 0.446485,-0.198437 0,-0.198438 0.297656,-0.198438 h 0.396875 q 0,-0.297656 0.09922,-0.297656 h 0.09922 l 0.297657,0.148828 0.74414,-0.198437 0.09922,0.09922 q 0,0.409277 -0.992187,1.190625 l -0.09922,0.248046 h 0.04961 l 0.198438,-0.04961 q 0.347265,0.03721 0.347265,0.148828 v 0.297656 h 0.04961 l 2.033984,-1.835546 q 0.248047,0 0.297656,-0.248047 z m -43.011327,9.574609 -0.148828,0.297656 h 0.09922 l 0.09922,-0.09922 v -0.198438 z"
         style="font-style:normal;font-variant:normal;font-weight:normal;font-stretch:normal;font-size:25.4px;font-family:'the King &amp; Queen font';-inkscape-font-specification:'the King &amp; Queen font, Normal';font-variant-ligatures:normal;font-variant-caps:normal;font-variant-numeric:normal;font-variant-east-asian:normal"
         id="path26" />
    </g>
  </g>
</svg>
